<?xml version="1.0" encoding="UTF-8" standalone="no"?>
<!DOCTYPE svg PUBLIC "-//W3C//DTD SVG 1.1//EN"
 "http://www.w3.org/Graphics/SVG/1.1/DTD/svg11.dtd">
<!-- Generated by graphviz version 2.43.0 (0)
 -->
<!-- Title: GATI Pages: 1 -->
<svg width="1221pt" height="998pt"
 viewBox="0.00 0.00 1220.90 998.15" xmlns="http://www.w3.org/2000/svg" xmlns:xlink="http://www.w3.org/1999/xlink">
<g id="graph0" class="graph" transform="scale(1 1) rotate(0) translate(25.2 972.95)">
<title>GATI</title>
<polygon fill="#fff8f3" stroke="transparent" points="-25.2,25.2 -25.2,-972.95 1195.7,-972.95 1195.7,25.2 -25.2,25.2"/>
<text text-anchor="middle" x="585.25" y="-926.15" font-family="DejaVu Sans" font-size="22.00" fill="#352c31">GATI &#160;| &#160;current architecture</text>
<g id="clust1" class="cluster">
<title>cluster_device</title>
<path fill="#fff8f3" stroke="#baa5ae" d="M143,-671.75C143,-671.75 485,-671.75 485,-671.75 491,-671.75 497,-677.75 497,-683.75 497,-683.75 497,-895.75 497,-895.75 497,-901.75 491,-907.75 485,-907.75 485,-907.75 143,-907.75 143,-907.75 137,-907.75 131,-901.75 131,-895.75 131,-895.75 131,-683.75 131,-683.75 131,-677.75 137,-671.75 143,-671.75"/>
<text text-anchor="middle" x="314" y="-893.35" font-family="DejaVu Sans" font-size="13.00" fill="#352c31">PARTICIPANT&#39;S DEVICE</text>
</g>
<g id="clust2" class="cluster">
<title>cluster_local</title>
<path fill="#fff8f3" stroke="#baa5ae" d="M174,-117C174,-117 536,-117 536,-117 542,-117 548,-123 548,-129 548,-129 548,-613.75 548,-613.75 548,-619.75 542,-625.75 536,-625.75 536,-625.75 174,-625.75 174,-625.75 168,-625.75 162,-619.75 162,-613.75 162,-613.75 162,-129 162,-129 162,-123 168,-117 174,-117"/>
<text text-anchor="middle" x="355" y="-610.55" font-family="DejaVu Sans" font-size="14.00" fill="#352c31">CURRENT LOCAL SERVICE &#160;| &#160;Docker Compose</text>
</g>
<!-- device -->
<g id="node1" class="node">
<title>device</title>
<path fill="#f4e8e6" stroke="#baa5ae" stroke-width="1.3" d="M428,-877.75C428,-877.75 200,-877.75 200,-877.75 194,-877.75 188,-871.75 188,-865.75 188,-865.75 188,-839.75 188,-839.75 188,-833.75 194,-827.75 200,-827.75 200,-827.75 428,-827.75 428,-827.75 434,-827.75 440,-833.75 440,-839.75 440,-839.75 440,-865.75 440,-865.75 440,-871.75 434,-877.75 428,-877.75"/>
<text text-anchor="middle" x="314" y="-856.15" font-family="DejaVu Sans" font-size="12.00" fill="#352c31">One&#45;shot device location</text>
<text text-anchor="middle" x="314" y="-843.15" font-family="DejaVu Sans" font-size="12.00" fill="#352c31">Exact coordinates stay on the device</text>
</g>
<!-- client -->
<g id="node2" class="node">
<title>client</title>
<path fill="#f4e8e6" stroke="#baa5ae" stroke-width="1.3" d="M477,-755.75C477,-755.75 151,-755.75 151,-755.75 145,-755.75 139,-749.75 139,-743.75 139,-743.75 139,-691.75 139,-691.75 139,-685.75 145,-679.75 151,-679.75 151,-679.75 477,-679.75 477,-679.75 483,-679.75 489,-685.75 489,-691.75 489,-691.75 489,-743.75 489,-743.75 489,-749.75 483,-755.75 477,-755.75"/>
<text text-anchor="middle" x="314" y="-734.15" font-family="DejaVu Sans" font-size="12.00" fill="#352c31">Albanian web app / PWA</text>
<text text-anchor="middle" x="314" y="-721.15" font-family="DejaVu Sans" font-size="12.00" fill="#352c31">TypeScript + MapLibre</text>
<text text-anchor="middle" x="314" y="-708.15" font-family="DejaVu Sans" font-size="12.00" fill="#352c31">100 m coarsening; temporary capability</text>
<text text-anchor="middle" x="314" y="-695.15" font-family="DejaVu Sans" font-size="12.00" fill="#352c31">Willingness, commitment, arrival and aggregate map</text>
</g>
<!-- device&#45;&gt;client -->
<g id="edge1" class="edge">
<title>device&#45;&gt;client</title>
<path fill="none" stroke="#963754" stroke-width="1.3" d="M314,-827.66C314,-809.86 314,-785.1 314,-763.69"/>
<polygon fill="#963754" stroke="#963754" stroke-width="1.3" points="316.63,-763.47 314,-755.97 311.38,-763.47 316.63,-763.47"/>
<text text-anchor="middle" x="351" y="-782.75" font-family="DejaVu Sans" font-size="10.00" fill="#66515b">coarsen locally</text>
</g>
<!-- web -->
<g id="node3" class="node">
<title>web</title>
<path fill="#ffffff" stroke="#baa5ae" stroke-width="1.3" d="M410,-594.75C410,-594.75 218,-594.75 218,-594.75 212,-594.75 206,-588.75 206,-582.75 206,-582.75 206,-543.75 206,-543.75 206,-537.75 212,-531.75 218,-531.75 218,-531.75 410,-531.75 410,-531.75 416,-531.75 422,-537.75 422,-543.75 422,-543.75 422,-582.75 422,-582.75 422,-588.75 416,-594.75 410,-594.75"/>
<text text-anchor="middle" x="314" y="-573.15" font-family="DejaVu Sans" font-size="12.00" fill="#352c31">Web frontend server</text>
<text text-anchor="middle" x="314" y="-560.15" font-family="DejaVu Sans" font-size="12.00" fill="#352c31">Vite in local development</text>
<text text-anchor="middle" x="314" y="-547.15" font-family="DejaVu Sans" font-size="12.00" fill="#352c31">Serves app assets; proxies /api</text>
</g>
<!-- client&#45;&gt;web -->
<g id="edge4" class="edge">
<title>client&#45;&gt;web</title>
<path fill="none" stroke="#963754" stroke-width="1.3" d="M314,-671.63C314,-649.74 314,-623.72 314,-602.78"/>
<polygon fill="#963754" stroke="#963754" stroke-width="1.3" points="311.38,-671.94 314,-679.44 316.63,-671.94 311.38,-671.94"/>
<polygon fill="#963754" stroke="#963754" stroke-width="1.3" points="316.63,-602.52 314,-595.02 311.38,-602.52 316.63,-602.52"/>
<text text-anchor="middle" x="397" y="-647.75" font-family="DejaVu Sans" font-size="10.00" fill="#66515b">coarse cell + radius + availability</text>
<text text-anchor="middle" x="397" y="-636.75" font-family="DejaVu Sans" font-size="10.00" fill="#66515b">capability in Authorization header</text>
</g>
<!-- api -->
<g id="node4" class="node">
<title>api</title>
<path fill="#fcf0eb" stroke="#baa5ae" stroke-width="1.3" d="M511,-466.25C511,-466.25 193,-466.25 193,-466.25 187,-466.25 181,-460.25 181,-454.25 181,-454.25 181,-336.25 181,-336.25 181,-330.25 187,-324.25 193,-324.25 193,-324.25 511,-324.25 511,-324.25 517,-324.25 523,-330.25 523,-336.25 523,-336.25 523,-454.25 523,-454.25 523,-460.25 517,-466.25 511,-466.25"/>
<text text-anchor="middle" x="352" y="-444.65" font-family="DejaVu Sans" font-size="12.00" fill="#352c31">ONE GO EXECUTABLE</text>
<text text-anchor="middle" x="352" y="-431.65" font-family="DejaVu Sans" font-size="12.00" fill="#352c31">HTTP API: capabilities, deadlines, rate limits</text>
<text text-anchor="middle" x="352" y="-418.65" font-family="DejaVu Sans" font-size="12.00" fill="#352c31">Private actions, invitations and previews</text>
<text text-anchor="middle" x="352" y="-405.65" font-family="DejaVu Sans" font-size="12.00" fill="#352c31">Public config + maps; delayed 1 km aggregate cells</text>
<text text-anchor="middle" x="352" y="-378.65" font-family="DejaVu Sans" font-size="12.00" fill="#352c31">BACKGROUND TASKS IN THE SAME PROCESS</text>
<text text-anchor="middle" x="352" y="-365.65" font-family="DejaVu Sans" font-size="12.00" fill="#352c31">Matching + arrival reconciliation</text>
<text text-anchor="middle" x="352" y="-352.65" font-family="DejaVu Sans" font-size="12.00" fill="#352c31">Delayed publishing + expiry/index cleanup</text>
<text text-anchor="middle" x="352" y="-339.65" font-family="DejaVu Sans" font-size="12.00" fill="#352c31">Optional push; leases coordinate replicas</text>
</g>
<!-- web&#45;&gt;api -->
<g id="edge2" class="edge">
<title>web&#45;&gt;api</title>
<path fill="none" stroke="#963754" stroke-width="1.3" d="M321.06,-531.42C324.79,-515.13 329.54,-494.34 334.21,-473.98"/>
<polygon fill="#963754" stroke="#963754" stroke-width="1.3" points="336.8,-474.4 335.92,-466.51 331.69,-473.23 336.8,-474.4"/>
<text text-anchor="middle" x="385.5" y="-493.25" font-family="DejaVu Sans" font-size="10.00" fill="#66515b">same&#45;origin /api proxy</text>
</g>
<!-- valkey -->
<g id="node5" class="node">
<title>valkey</title>
<path fill="#eaf0eb" stroke="#69816e" stroke-width="1.3" d="M539.5,-252.6C539.5,-259.65 456.8,-265.38 355,-265.38 253.2,-265.38 170.5,-259.65 170.5,-252.6 170.5,-252.6 170.5,-137.65 170.5,-137.65 170.5,-130.6 253.2,-124.87 355,-124.87 456.8,-124.87 539.5,-130.6 539.5,-137.65 539.5,-137.65 539.5,-252.6 539.5,-252.6"/>
<path fill="none" stroke="#69816e" stroke-width="1.3" d="M539.5,-252.6C539.5,-245.55 456.8,-239.83 355,-239.83 253.2,-239.83 170.5,-245.55 170.5,-252.6"/>
<text text-anchor="middle" x="355" y="-224.53" font-family="DejaVu Sans" font-size="12.00" fill="#352c31">PRIVATE VALKEY &#160;| &#160;RAM only</text>
<text text-anchor="middle" x="355" y="-211.53" font-family="DejaVu Sans" font-size="12.00" fill="#352c31">Temporary signals, capability hashes, indexes</text>
<text text-anchor="middle" x="355" y="-198.53" font-family="DejaVu Sans" font-size="12.00" fill="#352c31">Gatherings, arrivals, nonces and leases</text>
<text text-anchor="middle" x="355" y="-185.53" font-family="DejaVu Sans" font-size="12.00" fill="#352c31">Optional encrypted push bindings / retry state</text>
<text text-anchor="middle" x="355" y="-172.53" font-family="DejaVu Sans" font-size="12.00" fill="#352c31">Precomputed, delayed public releases</text>
<text text-anchor="middle" x="355" y="-159.53" font-family="DejaVu Sans" font-size="12.00" fill="#352c31">TTL + cleanup; persistence and participant backups OFF</text>
</g>
<!-- api&#45;&gt;valkey -->
<g id="edge3" class="edge">
<title>api&#45;&gt;valkey</title>
<path fill="none" stroke="#69816e" stroke-width="1.3" d="M353.06,-324.12C353.31,-307.61 353.58,-289.93 353.83,-273.14"/>
<polygon fill="#69816e" stroke="#69816e" stroke-width="1.3" points="356.46,-273.03 353.95,-265.49 351.21,-272.95 356.46,-273.03"/>
<text text-anchor="middle" x="448" y="-292.25" font-family="DejaVu Sans" font-size="10.00" fill="#66515b">private reads + atomic Lua transitions</text>
</g>
<!-- monitor -->
<g id="node7" class="node">
<title>monitor</title>
<path fill="#f1eee9" stroke="#baa5ae" stroke-width="1.3" d="M823,-890.75C823,-890.75 517,-890.75 517,-890.75 511,-890.75 505,-884.75 505,-878.75 505,-878.75 505,-826.75 505,-826.75 505,-820.75 511,-814.75 517,-814.75 517,-814.75 823,-814.75 823,-814.75 829,-814.75 835,-820.75 835,-826.75 835,-826.75 835,-878.75 835,-878.75 835,-884.75 829,-890.75 823,-890.75"/>
<text text-anchor="middle" x="670" y="-869.15" font-family="DejaVu Sans" font-size="12.00" fill="#352c31">OPTIONAL PRIVATE MONITORING</text>
<text text-anchor="middle" x="670" y="-856.15" font-family="DejaVu Sans" font-size="12.00" fill="#352c31">Owner&#45;only Unix socket, no TCP metrics port</text>
<text text-anchor="middle" x="670" y="-843.15" font-family="DejaVu Sans" font-size="12.00" fill="#352c31">Python collector: bounded health + CPU/RSS</text>
<text text-anchor="middle" x="670" y="-830.15" font-family="DejaVu Sans" font-size="12.00" fill="#352c31">Suppressed request buckets; no participant labels</text>
</g>
<!-- api&#45;&gt;monitor -->
<g id="edge6" class="edge">
<title>api&#45;&gt;monitor</title>
<path fill="none" stroke="#963754" stroke-width="1.3" stroke-dasharray="5,2" d="M428.95,-466.49C435.77,-474.19 442.25,-482.17 448,-490.25 486.62,-544.51 481.27,-566.66 512,-625.75 550.94,-700.63 554.01,-724.26 606,-790.75 610.92,-797.05 616.49,-803.3 622.24,-809.28"/>
<polygon fill="#963754" stroke="#963754" stroke-width="1.3" points="620.42,-811.17 627.55,-814.68 624.16,-807.49 620.42,-811.17"/>
<text text-anchor="middle" x="597" y="-642.25" font-family="DejaVu Sans" font-size="10.00" fill="#66515b">fixed operational summaries</text>
</g>
<!-- provider -->
<g id="node8" class="node">
<title>provider</title>
<path fill="#f1eee9" stroke="#baa5ae" stroke-width="1.3" stroke-dasharray="5,2" d="M1158.5,-890.75C1158.5,-890.75 879.5,-890.75 879.5,-890.75 873.5,-890.75 867.5,-884.75 867.5,-878.75 867.5,-878.75 867.5,-826.75 867.5,-826.75 867.5,-820.75 873.5,-814.75 879.5,-814.75 879.5,-814.75 1158.5,-814.75 1158.5,-814.75 1164.5,-814.75 1170.5,-820.75 1170.5,-826.75 1170.5,-826.75 1170.5,-878.75 1170.5,-878.75 1170.5,-884.75 1164.5,-890.75 1158.5,-890.75"/>
<text text-anchor="middle" x="1019" y="-869.15" font-family="DejaVu Sans" font-size="12.00" fill="#352c31">OPTIONAL EXTERNAL WEB PUSH</text>
<text text-anchor="middle" x="1019" y="-856.15" font-family="DejaVu Sans" font-size="12.00" fill="#352c31">Browser/OS provider delivers minimal update</text>
<text text-anchor="middle" x="1019" y="-843.15" font-family="DejaVu Sans" font-size="12.00" fill="#352c31">User opt&#45;in; expiring subscription</text>
<text text-anchor="middle" x="1019" y="-830.15" font-family="DejaVu Sans" font-size="12.00" fill="#352c31">Disabled in the default configuration</text>
</g>
<!-- api&#45;&gt;provider -->
<g id="edge7" class="edge">
<title>api&#45;&gt;provider</title>
<path fill="none" stroke="#963754" stroke-width="1.3" stroke-dasharray="5,2" d="M455.59,-466.36C476.96,-483.92 498.08,-503.89 515,-525.25 546.62,-565.16 527.22,-598.14 570,-625.75 589.66,-638.44 659.09,-616.59 675,-633.75 722.51,-685.01 619.87,-738.25 666,-790.75 693.36,-821.89 810.16,-807.62 851,-814.75 853.81,-815.24 856.65,-815.75 859.51,-816.27"/>
<polygon fill="#963754" stroke="#963754" stroke-width="1.3" points="859.25,-818.89 867.11,-817.67 860.21,-813.73 859.25,-818.89"/>
<text text-anchor="middle" x="756" y="-642.25" font-family="DejaVu Sans" font-size="10.00" fill="#66515b">encrypted, bounded delivery</text>
</g>
<!-- future -->
<g id="node9" class="node">
<title>future</title>
<path fill="#f1eee9" stroke="#baa5ae" stroke-width="1.3" stroke-dasharray="5,2" d="M322,-76C322,-76 12,-76 12,-76 6,-76 0,-70 0,-64 0,-64 0,-12 0,-12 0,-6 6,0 12,0 12,0 322,0 322,0 328,0 334,-6 334,-12 334,-12 334,-64 334,-64 334,-70 328,-76 322,-76"/>
<text text-anchor="middle" x="167" y="-54.4" font-family="DejaVu Sans" font-size="12.00" fill="#352c31">PLANNED DEPLOYMENT FRONT DOOR</text>
<text text-anchor="middle" x="167" y="-41.4" font-family="DejaVu Sans" font-size="12.00" fill="#352c31">Caddy / HTTPS and optional public edge cache</text>
<text text-anchor="middle" x="167" y="-28.4" font-family="DejaVu Sans" font-size="12.00" fill="#352c31">Only public assets/releases may be shared&#45;cached</text>
<text text-anchor="middle" x="167" y="-15.4" font-family="DejaVu Sans" font-size="12.00" fill="#352c31">Deployment wiring and edge tests remain</text>
</g>
<!-- valkey&#45;&gt;future -->
<!-- lab -->
<g id="node10" class="node">
<title>lab</title>
<polygon fill="#f1eee9" stroke="#baa5ae" stroke-width="1.3" points="714,-76 366,-76 366,0 720,0 720,-70 714,-76"/>
<polyline fill="none" stroke="#baa5ae" stroke-width="1.3" points="714,-76 714,-70 "/>
<polyline fill="none" stroke="#baa5ae" stroke-width="1.3" points="720,-70 714,-70 "/>
<text text-anchor="middle" x="543" y="-54.4" font-family="DejaVu Sans" font-size="12.00" fill="#352c31">SEPARATE LOCAL TEST LAB</text>
<text text-anchor="middle" x="543" y="-41.4" font-family="DejaVu Sans" font-size="12.00" fill="#352c31">Own disposable API + Valkey; synthetic people only</text>
<text text-anchor="middle" x="543" y="-28.4" font-family="DejaVu Sans" font-size="12.00" fill="#352c31">Tirana simulations, real&#45;clock load, browser/fault tests</text>
<text text-anchor="middle" x="543" y="-15.4" font-family="DejaVu Sans" font-size="12.00" fill="#352c31">Monitoring reports + reproducible&#45;build checks</text>
</g>
<!-- valkey&#45;&gt;lab -->
<!-- assets -->
<g id="node6" class="node">
<title>assets</title>
<polygon fill="#f1eee9" stroke="#baa5ae" stroke-width="1.3" points="868,-601.25 586,-601.25 586,-525.25 874,-525.25 874,-595.25 868,-601.25"/>
<polyline fill="none" stroke="#baa5ae" stroke-width="1.3" points="868,-601.25 868,-595.25 "/>
<polyline fill="none" stroke="#baa5ae" stroke-width="1.3" points="874,-595.25 868,-595.25 "/>
<text text-anchor="middle" x="730" y="-579.65" font-family="DejaVu Sans" font-size="12.00" fill="#352c31">AUDITABLE INPUT FILES</text>
<text text-anchor="middle" x="730" y="-566.65" font-family="DejaVu Sans" font-size="12.00" fill="#352c31">config/gati.yaml</text>
<text text-anchor="middle" x="730" y="-553.65" font-family="DejaVu Sans" font-size="12.00" fill="#352c31">Pinned Tirana crossroads + road geometry</text>
<text text-anchor="middle" x="730" y="-540.65" font-family="DejaVu Sans" font-size="12.00" fill="#352c31">First&#45;party maps; no live geocoder</text>
</g>
<!-- assets&#45;&gt;api -->
<g id="edge5" class="edge">
<title>assets&#45;&gt;api</title>
<path fill="none" stroke="#baa5ae" stroke-width="1.3" d="M680.23,-525.25C662.44,-513.07 641.87,-500.13 622,-490.25 593.08,-475.87 561.41,-462.72 530.27,-451.11"/>
<polygon fill="#baa5ae" stroke="#baa5ae" stroke-width="1.3" points="531.16,-448.64 523.21,-448.51 529.34,-453.57 531.16,-448.64"/>
<text text-anchor="middle" x="711" y="-493.25" font-family="DejaVu Sans" font-size="10.00" fill="#66515b">rules + map / crossroad data</text>
</g>
<!-- provider&#45;&gt;client -->
<g id="edge8" class="edge">
<title>provider&#45;&gt;client</title>
<path fill="none" stroke="#963754" stroke-width="1.3" stroke-dasharray="5,2" d="M867.5,-818.09C861.93,-816.95 856.42,-815.83 851,-814.75 733.31,-791.28 600.57,-767.53 496.51,-749.52"/>
<polygon fill="#963754" stroke="#963754" stroke-width="1.3" points="496.9,-746.92 489.07,-748.23 496.01,-752.1 496.9,-746.92"/>
<text text-anchor="middle" x="816" y="-782.75" font-family="DejaVu Sans" font-size="10.00" fill="#66515b">optional update; app rechecks live state</text>
</g>
</g>
</svg>
